<svg width="176" height="36" xmlns="http://www.w3.org/2000/svg"><path d="M46.816 26.058V0H42.24v26.058c0 4.547 2.464 7.346 5.456 8.045 1.76.175 3.344.175 5.104-.175v-4.197c-.88.175-1.76.175-2.464.175-2.816 0-3.52-1.924-3.52-3.848zM26.752 10.144c-2.992.174-5.984 1.399-7.92 3.847l2.992 2.798c1.76-1.574 4.048-2.448 6.336-2.098 2.464 0 4.576 1.923 4.576 4.547v.7s-4.4.349-7.744.874c-4.752.175-7.392 2.798-7.392 6.82 0 4.023 3.344 7.346 7.392 7.346h.528c2.816 0 5.456-1.4 7.216-3.673v2.448h4.576v-15.04c0-4.547-3.344-8.92-10.56-8.57zm-1.76 20.636c-1.76 0-3.168-1.399-3.168-3.148 0-1.574 1.584-2.623 3.168-3.148 2.64-.524 5.104-.874 7.744-.874-.176 4.197-3.52 7.345-7.744 7.17zm-15.84-4.722V14.516h5.984V9.969H9.152V2.973H4.576V9.97H0v4.547h4.576v11.542c0 4.547 2.464 7.346 5.456 8.045 1.76.175 3.52.175 5.28-.175v-4.197c-.88.175-1.76.175-2.64.175-2.816 0-3.52-1.924-3.52-3.848zm108.24-16.09c-3.168 0-6.16 1.225-8.272 3.498-2.288 2.449-3.344 5.772-3.168 9.27v.174c-.176 3.148 1.056 6.296 3.168 8.745 2.112 2.273 5.28 3.498 8.448 3.323 3.344 0 6.688-1.225 8.976-3.848l-2.992-2.798c-1.584 1.574-3.696 2.273-5.984 2.273-3.52.35-6.688-2.273-7.04-5.77v-.7h17.6v-2.099a12.355 12.355 0 0 0-2.992-8.744c-1.936-2.1-4.752-3.323-7.744-3.323zm-6.688 10.319l.176-1.224c.352-1.05.88-2.099 1.76-2.798 1.232-1.225 2.992-1.75 4.752-1.75 2.816 0 5.28 1.925 5.808 4.723l.176 1.049h-12.672zm-33.616-9.094H70.4l-9.68 9.444V0h-4.4v33.753h4.576v-6.82l2.112-1.924 8.976 8.92h6.512L66.176 21.86l10.912-10.668zm64.768 9.444c-1.76-.525-6.16-1.4-6.16-3.498 0-1.574 1.232-2.798 3.872-2.798 2.288 0 4.576.874 6.16 2.448l3.168-2.973c-2.464-2.273-5.808-3.498-9.152-3.498-4.224 0-8.448 2.624-8.448 7.346 0 4.197 4.576 5.596 7.04 6.47l4.4 1.575c1.408.524 2.112 1.399 2.112 2.448 0 1.924-2.112 3.323-5.104 3.148-2.288 0-4.576-.874-6.336-2.448l-2.992 2.623c2.464 2.273 5.808 3.673 9.152 3.498 4.752 0 10.032-2.624 10.032-7.346 0-4.722-5.28-6.296-7.744-6.995zm21.824 1.224l10.912-10.493h-6.512l-9.68 9.269V0h-4.576v33.753h4.576v-6.82l2.112-1.924 8.976 8.92H176L163.68 21.86zm-66.176-8.395s-.352-.7-2.464-2.098c-1.584-.875-3.344-1.4-5.104-1.4-6.336 0-11.44 5.597-11.44 12.593 0 6.995 5.104 12.417 11.264 12.417 1.76 0 3.344-.35 4.928-1.05 1.232-.524 2.112-1.399 2.64-2.623v2.448h4.752V0h-4.576v13.466zm0 8.57c.176 4.372-3.168 8.045-7.568 8.395-4.048-.175-7.392-3.673-7.216-7.696v-.174c-.352-4.023 2.64-7.695 6.688-8.045 4.048-.35 7.744 2.623 8.096 6.645v.875z" fill="#162241" fill-rule="nonzero"/></svg>